<mxfile host="app.diagrams.net" modified="2023-11-20T16:17:30.267Z" agent="Mozilla/5.0 (Macintosh; Intel Mac OS X 10_15_7) AppleWebKit/605.1.15 (KHTML, like Gecko) Version/17.1 Safari/605.1.15" etag="q2pjtumZd-UOMiJmcx5E" version="22.1.3" type="github">
  <diagram name="Page-1" id="TQgDXgH-JpgQsxGRE-dh">
    <mxGraphModel dx="1026" dy="620" grid="1" gridSize="10" guides="1" tooltips="1" connect="1" arrows="1" fold="1" page="1" pageScale="1" pageWidth="827" pageHeight="1169" math="0" shadow="0">
      <root>
        <mxCell id="0" />
        <mxCell id="1" parent="0" />
        <mxCell id="TEmfXS1JJKraIvyOYTmt-1" value="Start" style="rounded=0;whiteSpace=wrap;html=1;" vertex="1" parent="1">
          <mxGeometry x="340" y="120" width="120" height="60" as="geometry" />
        </mxCell>
        <mxCell id="TEmfXS1JJKraIvyOYTmt-2" value="" style="endArrow=none;html=1;rounded=0;entryX=0.5;entryY=1;entryDx=0;entryDy=0;" edge="1" parent="1" target="TEmfXS1JJKraIvyOYTmt-1">
          <mxGeometry width="50" height="50" relative="1" as="geometry">
            <mxPoint x="400" y="240" as="sourcePoint" />
            <mxPoint x="440" y="300" as="targetPoint" />
          </mxGeometry>
        </mxCell>
        <mxCell id="TEmfXS1JJKraIvyOYTmt-5" value="" style="edgeStyle=orthogonalEdgeStyle;rounded=0;orthogonalLoop=1;jettySize=auto;html=1;" edge="1" parent="1" source="TEmfXS1JJKraIvyOYTmt-3" target="TEmfXS1JJKraIvyOYTmt-4">
          <mxGeometry relative="1" as="geometry" />
        </mxCell>
        <mxCell id="TEmfXS1JJKraIvyOYTmt-3" value="INPUT: num,num1" style="shape=card;whiteSpace=wrap;html=1;" vertex="1" parent="1">
          <mxGeometry x="360" y="200" width="80" height="40" as="geometry" />
        </mxCell>
        <mxCell id="TEmfXS1JJKraIvyOYTmt-7" value="" style="edgeStyle=orthogonalEdgeStyle;rounded=0;orthogonalLoop=1;jettySize=auto;html=1;" edge="1" parent="1" source="TEmfXS1JJKraIvyOYTmt-4" target="TEmfXS1JJKraIvyOYTmt-6">
          <mxGeometry relative="1" as="geometry" />
        </mxCell>
        <mxCell id="TEmfXS1JJKraIvyOYTmt-11" value="" style="edgeStyle=orthogonalEdgeStyle;rounded=0;orthogonalLoop=1;jettySize=auto;html=1;" edge="1" parent="1" source="TEmfXS1JJKraIvyOYTmt-4" target="TEmfXS1JJKraIvyOYTmt-10">
          <mxGeometry relative="1" as="geometry" />
        </mxCell>
        <mxCell id="TEmfXS1JJKraIvyOYTmt-4" value="Action:&lt;br&gt;Num*num1" style="whiteSpace=wrap;html=1;" vertex="1" parent="1">
          <mxGeometry x="340" y="310" width="120" height="60" as="geometry" />
        </mxCell>
        <mxCell id="TEmfXS1JJKraIvyOYTmt-6" value="Result = num*num1" style="whiteSpace=wrap;html=1;" vertex="1" parent="1">
          <mxGeometry x="540" y="310" width="120" height="60" as="geometry" />
        </mxCell>
        <mxCell id="TEmfXS1JJKraIvyOYTmt-13" value="" style="edgeStyle=orthogonalEdgeStyle;rounded=0;orthogonalLoop=1;jettySize=auto;html=1;" edge="1" parent="1" source="TEmfXS1JJKraIvyOYTmt-10" target="TEmfXS1JJKraIvyOYTmt-12">
          <mxGeometry relative="1" as="geometry" />
        </mxCell>
        <mxCell id="TEmfXS1JJKraIvyOYTmt-10" value="Result" style="shape=tape;whiteSpace=wrap;html=1;" vertex="1" parent="1">
          <mxGeometry x="340" y="430" width="120" height="100" as="geometry" />
        </mxCell>
        <mxCell id="TEmfXS1JJKraIvyOYTmt-12" value="Stop" style="whiteSpace=wrap;html=1;" vertex="1" parent="1">
          <mxGeometry x="340" y="630" width="120" height="60" as="geometry" />
        </mxCell>
      </root>
    </mxGraphModel>
  </diagram>
</mxfile>
